<svg xmlns="http://www.w3.org/2000/svg" viewBox="0 0 64 64">
  <defs>
    <linearGradient id="bg" x1="0" y1="0" x2="1" y2="1">
      <stop offset="0%" stop-color="#7c5cff"/>
      <stop offset="100%" stop-color="#4facfe"/>
    </linearGradient>
  </defs>
  <rect width="64" height="64" rx="16" fill="url(#bg)"/>
  <path d="M44 22c0-3.5-3-6-7-6h-10c-5.5 0-10 4.5-10 10v6c0 4.5 3.5 8 8 8h1l-2 5c-.3.7.5 1.3 1.1.9l7-5.4c.4-.3.9-.5 1.4-.5h3.5c4 0 7-2.5 7-6v-3.5l5 3c.7.4 1.5-.1 1.5-.9V21c0-.8-.8-1.3-1.5-.9l-5 3V22z" fill="#fff"/>
  <circle cx="34" cy="26" r="2" fill="#1a1d2e"/>
  <path d="M44 28l4-2v4l-4-2z" fill="#ffb84d"/>
</svg>
